<?xml version="1.0" encoding="UTF-8"?>
<svg id="Capa_1" data-name="Capa 1" xmlns="http://www.w3.org/2000/svg" version="1.1" viewBox="0 0 400 400">
  <defs>
    <style>
      .cls-1 {
        fill: #cecece;
        stroke-width: 0px;
      }
    </style>
  </defs>
  <path class="cls-1" d="M371.25,21.03c.46.3.9.63,1.39.89,4.74,2.46,7.16,7.14,6.05,11.78-1.2,5.05-5.23,8.27-10.68,8.29-16.66.05-33.31.02-49.97.02h-3.82c-6.54,19.58-19.96,30.13-40.77,31.67v31.05H126.77v-31.01c-20.84-1.51-34.45-11.99-41-31.71h-45.4c-1.75,0-3.51-.15-5.24.03-6.5.67-11.29-1.67-14.09-7.72v-5.59c1.67-3.46,4.22-6.03,7.69-7.69h342.52Z"/>
  <path class="cls-1" d="M21.04,337.69c2.79-6.05,7.58-7.82,14.08-7.79,40.29.2,80.57.1,120.86.1,8.63,0,12.55,3.93,12.56,12.58,0,8.27.03,16.53,0,24.8-.03,7.24-4.28,11.53-11.5,11.53-41.45.02-82.9-.03-124.35.06-5.8.01-9.21-2.97-11.63-7.73v-33.55h-.02Z"/>
  <path class="cls-1" d="M305.17,330h61.46c8.22,0,12.29,4.01,12.3,12.13.01,8.38.03,16.76,0,25.14-.03,7.43-4.26,11.64-11.74,11.65-41.32.01-82.65.01-123.97,0-7.5,0-11.74-4.2-11.77-11.61-.03-8.61-.03-17.23,0-25.84.03-7.21,4.3-11.46,11.56-11.46,20.72-.02,41.44,0,62.16,0h0Z"/>
  <path class="cls-1" d="M131.5,125.95h136.83c-.48.97-.79,1.79-1.24,2.52-6.22,9.98-12.5,19.91-18.64,29.93-1.11,1.81-2.31,2.49-4.44,2.48-29.35-.07-58.71-.02-88.06-.13-1.34,0-3.26-.81-3.94-1.86-6.68-10.37-13.16-20.87-19.69-31.34-.23-.37-.4-.78-.82-1.61h0Z"/>
  <path class="cls-1" d="M161.59,181.96h76.74c0,11.05.26,21.96-.12,32.85-.18,5.07-4.84,8.86-10.05,8.89-18.74.1-37.47.1-56.21,0-5.5-.03-10.15-4.11-10.28-9.45-.27-10.68-.08-21.36-.08-32.29h0Z"/>
  <path class="cls-1" d="M189.51,244.88h20.69c.09.76.27,1.53.27,2.3,0,40.16.03,80.32,0,120.48,0,8.66-8.14,13.88-15.37,9.96-3.97-2.15-5.6-5.65-5.59-10.1.03-21.42,0-42.84,0-64.26v-58.38h-.01Z"/>
  <path class="cls-1" d="M128.13,219.53c1.51.82,4.31,1.68,6.22,3.48,6.7,6.3,13.16,12.86,19.57,19.46,4.2,4.32,4.16,10.74.19,14.8-3.95,4.04-10.51,4.25-14.8.12-6.79-6.55-13.45-13.23-20.01-20.02-3.21-3.32-3.8-7.39-1.88-11.64,1.83-4.03,5.24-5.72,10.7-6.21h.01Z"/>
  <path class="cls-1" d="M283.6,231.81c-.71,1.27-1.66,4.15-3.53,6.15-6.13,6.54-12.55,12.82-18.97,19.08-4.48,4.37-10.93,4.45-15.07.4-4.28-4.18-4.2-10.67.35-15.3,6.37-6.48,12.78-12.91,19.28-19.26,3.29-3.22,7.26-4.05,11.59-2.26,3.85,1.58,6.39,5.51,6.34,11.2h.01Z"/>
  <path class="cls-1" d="M115.91,295.04c-4.42,0-8.83.05-13.25-.01-6.4-.09-11.07-4.62-11-10.59.06-5.82,4.68-10.3,10.88-10.35,9.06-.07,18.13-.07,27.19,0,6.2.05,10.8,4.56,10.83,10.4.03,5.85-4.54,10.41-10.71,10.53-4.65.09-9.3.02-13.94.02h0Z"/>
  <path class="cls-1" d="M283.52,295.04c-4.3,0-8.6.04-12.9,0-6.48-.07-11.15-4.43-11.2-10.39-.05-5.97,4.62-10.51,11.03-10.55,8.95-.06,17.9-.06,26.84,0,6.42.04,11.09,4.58,11.03,10.56s-4.71,10.32-11.21,10.39c-4.53.05-9.06,0-13.6,0h0Z"/>
</svg>