<?xml version="1.0" encoding="UTF-8"?>
<svg id="Capa_1" data-name="Capa 1" xmlns="http://www.w3.org/2000/svg" version="1.1" viewBox="0 0 400 400">
  <defs>
    <style>
      .cls-1 {
        fill: #cecece;
        stroke-width: 0px;
      }
    </style>
  </defs>
  <path class="cls-1" d="M107.01,381.73c-4.14-3.85-8.29-7.7-12.71-11.82,1.04-1.2,1.83-2.17,2.68-3.08,13.7-14.56,27.4-29.11,41.09-43.67.97-1.03,1.98-2.08,2.67-3.29,1.55-2.7.86-6.07-1.58-7.99-2.53-1.98-5.25-2.04-7.87-.21-1.05.73-1.9,1.77-2.79,2.71-14.35,15.24-28.69,30.49-42.69,45.37-6.06-6-12.07-11.94-18.22-18.03,5.7-5.73,11.86-11.93,18.03-18.12,4.39-4.41,5.07-8.27,1.96-11.29-3.02-2.93-6.76-2.25-11.02,2-6.03,6.01-12.06,12.03-18.09,18.04-.16.16-.4.23-.27.15-6.14-6.13-12.19-12.19-18.39-18.38,10-9.34,22.11-15.21,35.99-17.6,9.6-1.65,19.06-.3,28.59.82,20.59,2.42,39.37-2.66,56.41-14.37.67-.46,1.35-.89,2.37-1.56,2.51,5.16,7.18,6.91,12.18,8.32,5.68,1.6,11.28,3.49,16.9,5.28.86.27,1.68.67,3.01,1.22-1.13,1.26-1.92,2.23-2.8,3.12-26.42,26.44-52.85,52.87-79.28,79.3-1.07,1.07-2.22,2.06-3.33,3.09h-2.84,0Z"/>
  <path class="cls-1" d="M18.27,290.16c1.37-1.45,2.7-2.94,4.11-4.35,29.94-29.95,59.88-59.89,89.83-89.83.89-.89,1.83-1.74,3.28-3.11.25,4.09.49,7.56.65,11.04.15,3.07-.22,6.24.42,9.2,1.37,6.33-.83,10.65-5.51,15.01-10.39,9.66-20.18,19.96-30.21,30-.75.75-1.54,1.48-2.23,2.29-2.44,2.87-2.39,6.48.07,8.96,2.42,2.44,6.23,2.61,8.96.17,2.29-2.04,4.4-4.29,6.57-6.47,10.21-10.2,20.45-20.37,30.58-30.65,1.62-1.64,2.96-2.08,5.25-1.33,9.98,3.27,20.04,6.29,30.2,9.44.38,7.95.84,15.74,1.04,23.53.03,1.15-.93,2.64-1.87,3.46-16.1,13.97-34.87,20-55.88,16.64-27.6-4.41-51.78,1.83-72.66,20.52-.17.15-.41.22-1.43,1.14-3.72-4.03-7.44-8.07-11.16-12.1v-3.55h0Z"/>
  <path class="cls-1" d="M192.93,281.55c-5.02-1.54-10.7-3.13-16.23-5.11-.96-.34-1.83-2.29-1.9-3.54-.61-10.39-.93-20.8-1.52-31.19-.47-8.36-3.18-11.64-11.31-14.21-9.8-3.09-19.6-6.16-29.43-9.13-2.09-.63-2.96-1.53-3.02-3.87-.3-10.05-.87-20.09-1.3-30.13-.38-9.04-3.36-12.96-12.05-15.64-8.57-2.65-17.16-5.26-25.73-7.91-4.7-1.45-5.96-3.22-6.18-8.22-.41-9.69-.87-19.38-1.33-29.07-.3-6.26-3.31-10.45-9.31-12.4-9.43-3.07-18.93-5.94-28.39-8.91-4.57-1.43-5.81-2.8-6.05-7.54-.49-9.57-1.01-19.14-1.06-28.72-.01-2.17,1.3-4.83,2.85-6.46,11.2-11.87,22.62-23.55,33.98-35.27,4.28-4.41,7.29-4.46,11.81-.16,16.62,15.82,33.22,31.67,49.84,47.49,41.47,39.48,82.94,78.94,124.42,118.41.51.49,1.03.98,1.54,1.47,3.98,3.91,4.08,7.14.27,11.36-17.42,19.33-34.86,38.64-52.3,57.96-3.25,3.6-6.59,7.13-9.73,10.82-2.64,3.1-5.06,6.39-7.87,9.95v.02ZM109.72,66.7c-1.89,1.59-4.13,2.8-5.35,4.67-1.66,2.55-.73,5.31,1.44,7.38,18.96,18.11,37.94,36.21,56.97,54.26,3.09,2.93,6.86,2.82,9.47.07,2.53-2.66,2.39-6.58-.62-9.46-18.87-18.04-37.77-36.05-56.73-53.99-1.21-1.15-2.98-1.72-5.18-2.93h0ZM91.16,62.82c1.87-1.54,4.11-2.72,5.34-4.57,1.55-2.32.97-5.08-1.05-7.12-3.06-3.09-6.22-6.1-9.46-9-3.06-2.74-6.99-2.64-9.45.05-2.45,2.68-2.21,6.54.73,9.45,2.84,2.82,5.7,5.63,8.72,8.25,1.27,1.1,2.97,1.72,5.17,2.95h0Z"/>
  <path class="cls-1" d="M284.45,198.16c3.37,3.03,6.51,5.85,9.65,8.69,26.08,23.53,52.16,47.07,78.26,70.58,5.05,4.55,8.16,10.03,8.72,16.87.44,5.35-1.11,10.09-4.68,14.06-19.15,21.27-38.19,42.65-57.61,63.68-7.15,7.75-16.65,10.2-26.95,8.06-2.96-.62-6.03-2.35-8.31-4.39-24.34-21.76-48.54-43.67-72.72-65.6-.94-.85-1.64-2.33-1.8-3.59-.87-6.8-1.67-13.61-2.15-20.45-.09-1.33,1.08-3,2.1-4.13,20.63-22.97,41.31-45.88,61.99-68.81,4.42-4.9,8.84-9.79,13.5-14.96h0ZM354.78,290.73c-1.1-1.82-1.73-3.7-3.02-4.89-9.56-8.8-19.21-17.51-28.93-26.15-3.48-3.09-6.88-2.91-9.97.5-17.54,19.36-35.03,38.75-52.49,58.17-3.18,3.54-2.92,6.99.63,10.23,9.44,8.59,18.9,17.15,28.41,25.67,3.5,3.14,7.09,2.97,10.26-.53,17.45-19.27,34.87-38.57,52.23-57.93,1.19-1.32,1.81-3.16,2.86-5.07h.02Z"/>
  <path class="cls-1" d="M314.15,39.52c6.39,6.38,12.4,12.37,18.65,18.6-4.87,4.84-9.89,9.83-14.91,14.83-1.01,1-2.05,1.97-2.99,3.03-2.65,3.01-2.63,6.65,0,9.21,2.62,2.56,6.29,2.6,9.21-.21,5.03-4.84,9.92-9.82,14.83-14.78.99-1,1.78-2.2,2.42-3.01,6.42,6.41,12.4,12.38,18.55,18.53-11.54,13.83-25.88,24.27-44.72,27.7-10.44,1.9-20.69.28-31.04-.78-23.32-2.37-43.86,4.5-61.75,19.54-.45.38-.92.74-1.75,1.41-7.83-7.45-15.66-14.89-23.99-22.82,1.25-.96,2.28-1.58,3.11-2.4,28.96-28.92,57.89-57.87,86.83-86.81,4.37-4.37,5.96-4.39,10.23-.12,2.68,2.67,5.34,5.37,7.99,8.06.15.15.19.41.47,1.02-5.07,5.05-10.24,10.2-15.42,15.36-.92.92-1.89,1.8-2.74,2.78-2.51,2.86-2.53,6.38-.11,8.96,2.44,2.59,6.47,2.81,9.23.17,5.21-4.99,10.26-10.15,15.34-15.27.99-1,1.83-2.14,2.57-3.01h0ZM254.59,96.88c2.02-.91,3.58-1.18,4.52-2.09,6.53-6.34,13.04-12.72,19.33-19.3,2.36-2.47,1.84-6.41-.55-8.67-2.3-2.19-6.05-2.6-8.4-.35-6.57,6.3-13.11,12.66-19.21,19.4-1.27,1.4-1.36,4.84-.6,6.8.7,1.8,3.26,2.88,4.92,4.21h-.01Z"/>
  <path class="cls-1" d="M299.21,193.92c-2.32-2.07-3.72-3.32-5.12-4.55-4.49-3.94-9.49-4.97-15.15-2.83-.81.31-2.22.36-2.75-.12-4.44-4.03-8.75-8.21-13.54-12.76,3.46-3.31,6.76-6.34,9.91-9.51,3.35-3.37,3.54-7.2.66-9.97-2.75-2.64-6.52-2.41-9.74.76-3.28,3.23-6.45,6.56-9.88,10.07-7.86-7.49-15.46-14.73-23.4-22.29.97-.86,1.77-1.65,2.64-2.34,17-13.39,36.19-17.29,57.39-14.02,26.01,4.01,48.87-3.21,68.41-20.78,3.84-3.45,7.21-7.42,10.98-11.35,3.9,3.94,7.36,7.32,10.68,10.83,2.07,2.17,1.81,4.5-.17,6.63-1.37,1.47-2.83,2.86-4.25,4.28-24.75,24.75-49.51,49.49-74.23,74.27-.99.99-1.58,2.36-2.46,3.7l.02-.02Z"/>
</svg>