<?xml version="1.0" encoding="UTF-8"?>
<svg id="Capa_1" data-name="Capa 1" xmlns="http://www.w3.org/2000/svg" version="1.1" viewBox="0 0 400 400">
  <defs>
    <style>
      .cls-1 {
        fill: #cecece;
        stroke-width: 0px;
      }
    </style>
  </defs>
  <path class="cls-1" d="M185.26,380.11c-2.26-.55-4.54-1.03-6.77-1.66-17.4-4.91-30.06-21.02-30.43-39.18-.26-13.12-.07-26.26-.09-39.38v-4.17H63.54v-3.44c0-37.74-.06-75.49.02-113.23.05-25.93,16.8-46.86,41.88-52.37,3.74-.82,7.66-1.19,11.5-1.2,52.87-.08,105.73-.05,158.6-.05.81,0,1.63,0,1.42,0-5.32,2.05-11.89,3.7-17.54,6.94-18.09,10.38-26.96,26.46-26.99,47.26-.07,52.28,0,104.56-.03,156.84,0,16.72-6.96,29.74-21.55,38.02-4.77,2.71-10.46,3.8-15.73,5.63h-9.86Z"/>
  <path class="cls-1" d="M56.51,380.11c-6.9-1.77-13.67-3.8-19.46-8.25-10.69-8.2-16.41-18.99-17.05-32.42-.2-4.09-.17-8.2-.02-12.3.22-5.85,4.48-10.27,10.34-10.29,31.75-.09,63.5-.05,95.25-.04.32,0,.65.15,1.3.31,0,5.94.1,11.88-.02,17.82-.35,17.13,4.89,32.23,16.2,45.16H56.51Z"/>
  <path class="cls-1" d="M380.15,67.03c-1.59,7.24-3.81,14.17-8.36,20.23-11.51,15.3-31.5,21.08-49.34,14.11-17.31-6.77-28.61-25.19-26.56-43.3,2.22-19.59,16.55-34.68,35.71-37.6,22.71-3.47,43.88,11.75,47.88,34.38.14.79.44,1.55.67,2.33v9.85h0ZM338.1,51.57c-5.73-.09-10.6,4.63-10.69,10.37-.09,5.73,4.63,10.6,10.37,10.69,5.73.09,10.6-4.63,10.69-10.37.09-5.73-4.63-10.6-10.37-10.69Z"/>
  <path class="cls-1" d="M380.15,172.56c-1.59,7.24-3.81,14.17-8.36,20.23-11.51,15.3-31.5,21.08-49.34,14.11-17.31-6.77-28.61-25.19-26.56-43.3,2.22-19.59,16.55-34.68,35.71-37.6,22.71-3.47,43.88,11.75,47.88,34.38.14.79.44,1.55.67,2.33v9.85h0ZM337.89,178.16c5.74.02,10.55-4.75,10.57-10.49.02-5.74-4.75-10.54-10.49-10.57-5.74-.02-10.54,4.75-10.57,10.49-.02,5.74,4.75,10.54,10.49,10.57Z"/>
  <path class="cls-1" d="M290.26,104.31h-3.29c-74.57,0-149.15.03-223.72-.02-25.26-.02-44.31-19.67-43.26-44.4.9-21.08,18.5-38.84,39.58-39.92,1.64-.08,3.28-.09,4.92-.09h225.74c-20.92,28.17-21,56.13.02,84.43h.01Z"/>
  <path class="cls-1" d="M64.37,125.72c-7.52,7.75-13.14,16.15-16.86,25.76-3.47,8.94-5.07,18.22-5.07,27.79v24.98c-11.37-4.05-26.06-22.43-21.73-44.88,3.87-20.03,23.63-35.59,43.66-33.66h0Z"/>
  <path class="cls-1" d="M290.58,209.77h-36.75c-.11-.7-.31-1.36-.31-2.01-.02-9.72-.12-19.45,0-29.17.2-14.33,8.96-26.42,21.82-30.39.55-.17,1.14-.23,2.29-.46-6.51,22.85-2.37,43.4,12.93,62.04h.01Z"/>
</svg>