<?xml version="1.0" encoding="UTF-8"?>
<svg id="Capa_1" data-name="Capa 1" xmlns="http://www.w3.org/2000/svg" version="1.1" viewBox="0 0 400 400">
  <defs>
    <style>
      .cls-1 {
        fill: #cecece;
        stroke-width: 0px;
      }
    </style>
  </defs>
  <path class="cls-1" d="M290.67,231.05v70.55h-35.81v-21.22c0-6.65-1.79-8.46-8.38-8.46h-99.23V80.58h143.37c.05,1.13.16,2.33.16,3.53,0,35.17-.03,70.34.08,105.52,0,2.87-.79,4.09-3.56,4.9-32.11,9.5-64.19,19.1-96.25,28.79-2.17.66-4.35,1.91-6.04,3.42-5.68,5.05-11.13,10.38-16.71,15.54-2.22,2.05-4.02,4.22-2.95,7.47.99,3.01,3.4,3.92,6.33,4.4,7.75,1.26,15.43,2.91,23.19,4.01,2.47.35,5.21-.17,7.65-.9,28.29-8.37,56.55-16.85,84.82-25.29.94-.28,1.9-.53,3.32-.92h.01ZM176.64,128.19c3.99,0,7.99.09,11.97-.02,3.97-.11,6.27-2.36,6.32-6.34.1-7.73.1-15.47,0-23.2-.05-3.98-2.35-6.27-6.34-6.32-7.73-.1-15.47-.1-23.2,0-3.98.05-6.27,2.34-6.32,6.33-.1,7.73-.1,15.47,0,23.2.05,3.98,2.35,6.21,6.33,6.33,3.74.11,7.48.02,11.23.02h0ZM194.97,163.79c0-3.62.06-7.24,0-10.85-.09-4.45-2.28-6.71-6.68-6.75-7.48-.08-14.97-.07-22.45,0-4.45.04-6.71,2.26-6.75,6.67-.08,7.48-.07,14.97,0,22.45.04,4.44,2.27,6.71,6.67,6.76,7.48.08,14.97.07,22.45,0,4.44-.04,6.67-2.28,6.76-6.68.08-3.87.02-7.73.02-11.6h-.01ZM207.13,127.94h71.38v-11.53h-71.38v11.53ZM207.12,181.84h71.38v-11.52h-71.38v11.52ZM231.07,103.98h47.57v-11.5h-47.57v11.5ZM278.73,146.38h-47.57v11.47h47.57v-11.47ZM207.16,92.45v11.56h11.49v-11.56h-11.49ZM207.13,157.93h11.56v-11.49h-11.56v11.49Z"/>
  <path class="cls-1" d="M134.83,271.74H39.47v-83.38h23.77v23.42c0,11.83.4,12.23,12.1,12.23h27.69c6.15,0,8.1-1.92,8.12-7.98.03-8.98.04-17.96.08-26.94,0-.22.18-.43.36-.82h23.25v83.47h-.01ZM123.04,248.21h-11.63v11.43h11.63v-11.43h0Z"/>
  <path class="cls-1" d="M39.55,284.08h23.69v27.02c0,7.07,1.68,8.72,8.87,8.72,10.35,0,20.71.01,31.06,0,6.05,0,7.97-1.96,7.98-8.12.01-9.09,0-18.18,0-27.54h23.73v83.26H39.55v-83.34ZM122.82,355.62v-11.64h-11.45v11.64h11.45Z"/>
  <path class="cls-1" d="M218.93,284.08h23.78v83.38h-95.41v-83.38h23.56c.06,1.18.16,2.37.16,3.56.02,8.48-.04,16.96.03,25.44.04,4.42,2.29,6.69,6.72,6.71,11.47.06,22.95.07,34.43,0,4.53-.03,6.7-2.36,6.73-7.09.05-9.46,0-18.91,0-28.62h0ZM230.76,343.96h-11.62v11.56h11.62v-11.56Z"/>
  <path class="cls-1" d="M302.77,189.73v-112.91c0-6.68-1.78-8.49-8.34-8.5h-27.4v-11.76c1.04-.07,2.11-.21,3.18-.21,10.48-.02,20.96-.03,31.43,0,8.13.02,13.09,4.91,13.09,13.01.03,37.92-.02,75.84.07,113.76,0,2.47-.78,3.56-3.09,4.09-2.89.67-5.71,1.59-8.95,2.51h.01Z"/>
  <path class="cls-1" d="M135.09,175.94h-11.8c-.06-1.24-.17-2.44-.17-3.64,0-34.05-.01-68.1,0-102.14,0-9.14,4.67-13.81,13.8-13.81,11.21,0,22.41,0,33.86,0v11.98h-26.91c-7.13,0-8.78,1.66-8.78,8.81v98.82-.02Z"/>
  <path class="cls-1" d="M255.02,325.81v-11.98h4.04c12.09,0,24.18.02,36.26,0,5.34-.01,7.44-2.13,7.44-7.51.02-24.92,0-49.85,0-74.77v-4.22c3.99-1.18,7.76-2.3,11.98-3.55v88.15c0,9.19-4.63,13.87-13.72,13.88-15.2.02-30.39,0-46.01,0h0Z"/>
  <path class="cls-1" d="M235.84,234.7c-1.18-3.91-2.24-7.45-3.39-11.3,10.05-3.03,19.91-6.02,29.78-8.98,29.08-8.71,58.16-17.42,87.25-26.12,1.43-.43,2.87-.9,4.34-1.06,3.3-.37,5.67,1.11,6.48,4.32.79,3.16-.42,5.79-3.54,6.96-3.49,1.31-7.11,2.27-10.69,3.34-35.76,10.7-71.52,21.39-107.28,32.07-.82.24-1.65.44-2.95.78h0Z"/>
  <path class="cls-1" d="M203.06,32.54h32.05c-1.29,5.27-2.56,10.32-3.76,15.38-1.22,5.11,1.22,8.33,6.43,8.4,5.57.08,11.15.02,16.89.02v11.71h-71.45v-11.71c5.43,0,10.75.02,16.08,0,6.19-.04,8.47-3.03,7-9.13-1.08-4.48-2.17-8.95-3.24-13.43-.08-.34,0-.72,0-1.24h0Z"/>
  <path class="cls-1" d="M75.38,211.77v-23.49h23.49v23.49h-23.49Z"/>
  <path class="cls-1" d="M98.96,307.67h-23.47v-23.54h23.47v23.54Z"/>
  <path class="cls-1" d="M206.79,284.16v23.49h-23.49v-23.49h23.49Z"/>
  <path class="cls-1" d="M183.97,244.17c5.31-5.06,9.42-9.99,16.54-11.39,6.8-1.33,13.36-3.86,20.38-5.97,1.16,3.82,2.26,7.45,3.48,11.45-9.2,2.74-18,5.93-27.07,7.81-3.86.8-8.29-1.1-13.32-1.91h-.01Z"/>
  <path class="cls-1" d="M171.23,104.42h11.49v11.56h-11.49v-11.56Z"/>
  <path class="cls-1" d="M182.82,169.97h-11.56v-11.62h11.56v11.62Z"/>
</svg>