<?xml version="1.0" encoding="UTF-8"?>
<svg id="Capa_1" data-name="Capa 1" xmlns="http://www.w3.org/2000/svg" version="1.1" viewBox="0 0 400 400">
  <defs>
    <style>
      .cls-1 {
        fill: #cecece;
        stroke-width: 0px;
      }
    </style>
  </defs>
  <path class="cls-1" d="M25.18,236.73c1.58-4.22,4.71-5.57,9.08-5.56,33,.09,66.01.06,99.01.03,1.69,0,3.44-.11,5.05-.56,2.99-.83,4.91-3.73,4.74-6.71-.17-3.18-2.45-5.82-5.64-6.34-1.45-.24-2.94-.27-4.42-.27-21.51-.02-43.02,0-64.53,0h-4.32c-.12-2.05-.23-3.81-.35-5.72-3.88-.25-7.62-.24-11.28-.79-3.18-.48-5.31-3.56-5.21-6.66.1-3.04,2.17-5.69,5.21-6.36,1.54-.34,3.15-.44,4.73-.44,10.58-.04,21.17.06,31.75-.07,5.59-.07,8.95-4.6,7.06-9.32-1.37-3.42-4.26-4.48-7.72-4.47-7.95.02-15.91,0-24.2,0-.07-1.26-.19-2.34-.19-3.42,0-14.57-.03-29.13,0-43.7,0-7.9,4.24-10.74,11.52-7.71,43.74,18.19,87.47,36.43,131.24,54.54,4.38,1.81,6.3,4.55,6.29,9.32-.08,50.64-.05,101.29-.06,151.93,0,7.78-4.37,10.71-11.58,7.73-43.78-18.09-87.54-36.24-131.35-54.28-4.24-1.75-6.38-4.39-6.11-9.05.18-3.15.03-6.32.03-9.95-5.76,0-11.18.04-16.6-.02-1.69-.02-3.45-.07-5.06-.51-3.08-.85-4.67-3.12-4.83-6.28-.16-3.06,1.85-5.9,4.82-6.64,1.63-.4,3.37-.51,5.06-.52,17.64-.04,35.28,0,52.92-.05,1.79,0,3.7-.08,5.35-.7,2.97-1.1,4.45-4.43,3.77-7.54-.77-3.54-3.28-5.51-7.52-5.53-11.27-.06-22.53-.02-33.8-.02h-3.83c-.11-2.1-.2-3.87-.32-6.08h-11.94c-5.92,0-11.84-.13-17.75.04-4.36.13-7.5-1.33-9.03-5.59v-2.73h.01Z"/>
  <path class="cls-1" d="M374.83,212.83v75.46c0,5.75-1.06,7.37-6.34,9.56-43.67,18.09-87.33,36.18-131.01,54.26-7.5,3.11-11.71.31-11.71-7.78,0-50.54,0-101.07,0-151.61,0-5.89.91-7.25,6.34-9.51,43.74-18.22,87.48-36.43,131.22-54.63,7.25-3.02,11.49-.14,11.49,7.77v76.49h.01ZM276.39,324.79c7.35-.02,13.62-6.69,13.72-14.59.09-7.45-6.42-13.93-13.94-13.87-7.57.06-13.89,6.47-13.82,14.02.08,8.22,6.15,14.47,14.04,14.44ZM244.84,335.2c8.51-.21,14.16-6.13,14.01-14.67-.14-7.66-6.43-13.61-14.22-13.45-7.52.15-13.44,6.55-13.32,14.39.12,7.69,6.25,13.91,13.54,13.73h0Z"/>
  <path class="cls-1" d="M286.89,73.02c-22.84,9.86-44.94,19.41-67.05,28.94-26.39,11.38-52.8,22.72-79.17,34.16-2.28.99-4.16,1-6.44.03-16.62-7.07-33.3-14-49.95-20.99-1.05-.44-2.09-.9-3.09-1.43-2.56-1.33-4.33-3.69-3.74-6.31.51-2.26,2.23-4.74,4.14-6.08,2.54-1.78,5.77-2.58,8.72-3.77,41.09-16.55,82.21-33.04,123.26-49.69,4.1-1.66,7.66-1.62,11.74.07,19.2,7.95,38.51,15.65,57.78,23.45,1.03.42,2.05.87,3.8,1.62Z"/>
  <path class="cls-1" d="M155.32,144.33c14.25-6.08,28.03-11.94,41.79-17.83,34.98-14.99,69.93-30.01,104.94-44.92,1.47-.63,3.59-.81,5.04-.25,16.1,6.24,32.15,12.6,48.14,19.1,1.99.81,4.1,2.23,5.26,3.97,2.42,3.62.52,7.76-4.18,9.75-11.09,4.69-22.22,9.29-33.33,13.91-32.72,13.62-65.45,27.19-98.13,40.89-3.72,1.56-7.03,1.67-10.79.08-18.4-7.81-36.89-15.43-55.34-23.12-1.02-.42-2-.92-3.4-1.57h0Z"/>
  <path class="cls-1" d="M275.99,317.36c-3.98.06-7.15-3-7.25-7.01-.11-4.04,3.19-7.36,7.3-7.36,3.83,0,6.94,2.99,7.1,6.83.17,4-3.14,7.49-7.15,7.54Z"/>
  <path class="cls-1" d="M245.04,313.81c3.94.06,6.87,3.01,6.89,6.93.02,4.08-3.3,7.49-7.27,7.46-3.84-.03-7.12-3.38-7.1-7.25.02-4.08,3.29-7.2,7.48-7.14h0Z"/>
</svg>