<?xml version="1.0" encoding="UTF-8"?>
<svg id="Capa_1" data-name="Capa 1" xmlns="http://www.w3.org/2000/svg" version="1.1" viewBox="0 0 400 400">
  <defs>
    <style>
      .cls-1 {
        fill: #cecece;
        stroke-width: 0px;
      }
    </style>
  </defs>
  <path class="cls-1" d="M324.61,25.68c-.11,4.97-.27,9.94-.33,14.91-.09,8.47-3.85,12.32-12.2,12.32H87.92c-8.36,0-12.11-3.84-12.2-12.32-.05-4.97-.21-9.94-.33-14.91h249.23Z"/>
  <path class="cls-1" d="M307.08,343.51H92.94c-.07-1.13-.17-2.13-.17-3.13-.01-12.48-.03-24.95,0-37.43.01-5.33,1.63-6.95,6.86-6.95,24.38,0,48.77.04,73.15-.04,6.03-.02,11.04,2.01,15.22,6.3,3.86,3.96,7.8,7.86,12.1,12.19,3.94-4.02,7.71-7.74,11.32-11.61,4.54-4.87,10.01-6.95,16.68-6.91,23.93.14,47.86.05,71.79.06,5.79,0,7.33,1.48,7.34,7.16.02,12.36.01,24.72,0,37.09,0,1-.09,2.01-.16,3.27h.01ZM125.03,333.44c2.26,0,4.53.09,6.78-.02,3.14-.16,5.17-2.3,5.12-5.18-.05-2.75-2.01-4.86-4.98-4.95-4.52-.14-9.05-.13-13.56,0-3.14.08-5.17,2.28-5.11,5.16.05,2.75,2,4.79,4.98,4.96,2.25.13,4.52.03,6.78.03h0ZM275.11,323.25c-2.37,0-4.75-.11-7.12.03-2.95.17-4.91,2.26-4.93,5.01s1.91,4.99,4.83,5.09c4.63.16,9.27.15,13.9,0,2.95-.09,4.91-2.26,4.93-5,.03-2.87-2.02-4.96-5.18-5.12-2.14-.11-4.3-.02-6.44-.01h.01Z"/>
  <path class="cls-1" d="M99.73,63.22h200.53c.06,1.15.17,2.23.17,3.31.01,14.07.02,28.14,0,42.21-.01,8.45-3.84,12.26-12.25,12.26H111.85c-8.43,0-12.25-3.8-12.27-12.25-.02-14.07,0-28.14,0-42.21,0-1,.1-2.01.16-3.32h0ZM145.38,107.37h0c2.27.01,4.54.06,6.8.01,6.73-.16,11.54-4.7,11.98-11.43.17-2.71.18-5.45-.04-8.15-.51-6.37-5.27-10.87-11.65-11.02-4.65-.11-9.3-.11-13.94,0-6.23.15-11.04,4.57-11.56,10.73-.26,3.04-.26,6.13,0,9.17.52,6.01,5.23,10.4,11.26,10.68,2.38.11,4.76.02,7.14.02h0ZM200.03,76.76c-2.38,0-4.76-.08-7.14.01-6.19.24-10.96,4.67-11.46,10.85-.24,3.04-.24,6.13.04,9.16.53,5.85,5.17,10.3,11.02,10.54,4.98.2,9.98.19,14.96,0,5.87-.22,10.52-4.64,11.07-10.48.28-3.03.29-6.13.05-9.16-.5-6.35-5.33-10.74-11.74-10.92-2.27-.06-4.53-.01-6.8,0ZM254.5,107.36v.02c2.27,0,4.54.06,6.8-.01,6.41-.19,11.23-4.59,11.74-10.92.24-2.93.24-5.9,0-8.83-.51-6.2-5.26-10.67-11.45-10.84-4.76-.13-9.52-.14-14.28,0-6.05.18-10.82,4.56-11.36,10.56-.28,3.14-.28,6.36,0,9.5.53,5.84,5.21,10.18,11.07,10.5,2.49.14,4.99.02,7.48.02h0Z"/>
  <path class="cls-1" d="M200,353.88h112.68c6.14,0,10.33,3.05,11.31,8.18,1.18,6.11-3.05,11.69-9.27,12.21-1.01.08-2.04.04-3.06.04H88.35c-1.47,0-2.98.07-4.4-.23-5.2-1.08-8.6-5.8-8.08-10.99s4.66-9.09,10.1-9.16c8.28-.11,16.57-.03,24.85-.03h89.19v-.02Z"/>
  <path class="cls-1" d="M252.63,154.1c0,4.84.37,9.28-.19,13.58-.21,1.61-2.38,3.75-4.06,4.24-18.1,5.27-36.63,7.48-55.47,6.68-13.75-.58-27.27-2.69-40.57-6.36-3.55-.98-5.18-2.88-5.12-6.48.06-3.72,0-7.44,0-11.72,35.26,8.15,70.19,8.19,105.4.05h0Z"/>
  <path class="cls-1" d="M167.75,186.15c21.67,3.76,42.96,3.66,64.39.07,0,8.53.3,16.68-.11,24.79-.25,5.06-4.72,8.56-10.17,8.6-14.62.1-29.24.11-43.86,0-5.66-.05-9.97-3.91-10.18-9.4-.3-7.8-.08-15.61-.08-24.05h.01ZM200.11,197.86c-1.81,0-3.63-.09-5.43.02-2.92.18-4.63,1.89-4.81,4.73-.19,2.89,1.47,4.96,4.27,5.22,3.81.36,7.69.31,11.52.05,2.88-.19,4.84-2.74,4.5-5.39-.36-2.83-2.03-4.48-4.95-4.62-1.69-.08-3.39,0-5.09,0h-.01Z"/>
  <path class="cls-1" d="M147.23,131.38h105.28v12.35c-6.31,1.23-12.8,2.73-19.36,3.73-27.88,4.24-55.57,3.18-83.05-3.23-2.2-.51-3.03-1.33-2.91-3.57.17-3.03.04-6.08.04-9.27h0Z"/>
  <path class="cls-1" d="M188.38,230.02h23.54v4.4c0,10.76.14,21.51-.06,32.27-.16,8.93-8.22,14.55-16.12,11.47-3.96-1.55-7.12-4.46-7.23-8.67-.35-13.09-.13-26.2-.13-39.46h0Z"/>
  <path class="cls-1" d="M236.09,264.4c-1.77-1.31-3.84-2.06-4.34-3.4-.6-1.63-.5-4.14.4-5.58,1.9-3.04,4.52-5.64,6.86-8.41,4.81-5.72,9.61-11.45,14.45-17.15,2.59-3.05,5.53-3.63,7.92-1.68,2.59,2.11,2.54,5.06-.19,8.32-6.77,8.07-13.51,16.16-20.37,24.16-1.17,1.37-2.86,2.29-4.72,3.74h0Z"/>
  <path class="cls-1" d="M141.73,226.47c1.87,1.27,3.5,1.95,4.53,3.14,7.17,8.34,14.24,16.76,21.27,25.21,2.24,2.69,2.05,5.62-.21,7.55-2.19,1.88-5.35,1.57-7.52-.98-7.2-8.46-14.42-16.91-21.38-25.56-1.05-1.31-1.37-3.91-.85-5.54.46-1.47,2.55-2.42,4.16-3.82h0Z"/>
  <path class="cls-1" d="M161.24,268.58c0,3.66-2.64,6.14-5.88,5.51-9.86-1.92-19.7-3.99-29.52-6.15-2.86-.63-4.36-3.3-3.78-5.92.62-2.82,3.12-4.58,6.13-3.97,9.63,1.94,19.25,3.96,28.85,6.03,2.59.56,4.1,2.26,4.2,4.5h0Z"/>
  <path class="cls-1" d="M244.33,274.28c-3.27-.37-5.21-1.72-5.51-4.63-.32-3.08,1.34-4.96,4.26-5.6,7.73-1.67,15.47-3.24,23.21-4.85,1.99-.41,3.96-1,5.97-1.21,2.83-.3,4.86,1,5.59,3.81.69,2.67-.32,5.13-2.87,5.75-10.31,2.47-20.71,4.58-30.65,6.73h0Z"/>
  <path class="cls-1" d="M145.5,97.17h-3.05c-3.63,0-5.44-1.77-5.44-5.3,0-3.27,1.6-4.91,4.81-4.91s6.33.05,9.49-.02c1.86-.04,2.56.8,2.74,2.6.73,7.54.67,7.63-8.55,7.63Z"/>
  <path class="cls-1" d="M199.85,97.17h-3.39c-3.31,0-4.97-1.7-4.97-5.09s1.76-5.1,5.28-5.12c3.05,0,6.12-.18,9.14.11.93.09,1.73,1.47,2.58,2.27.06.06,0,.22.02.33.45,5-2.43,7.5-8.66,7.5Z"/>
  <path class="cls-1" d="M254.95,86.96h3.05c3.33,0,4.99,1.69,4.99,5.07s-1.75,5.09-5.26,5.14c-3.05,0-6.12.18-9.14-.11-.93-.09-1.74-1.46-2.59-2.26-.06-.06,0-.22-.02-.33-.46-5.01,2.53-7.51,8.97-7.51h0Z"/>
</svg>