<?xml version="1.0" encoding="UTF-8"?>
<svg id="Capa_1" xmlns="http://www.w3.org/2000/svg" version="1.1" viewBox="0 0 1600.26 530.45">
  <!-- Generator: Adobe Illustrator 30.6.0, SVG Export Plug-In . SVG Version: 2.1.4 Build 109)  -->
  <defs>
    <style>
      .st0 {
        fill: #cb151f;
      }

      .st1 {
        fill: #1d1d1b;
      }

      .st2 {
        fill: #020303;
      }
    </style>
  </defs>
  <path class="st0" d="M42.01,325.38c3.59-12.85,7.05-25,10.34-37.21.64-2.37,1.87-3.19,4.13-2.96.17.02.35.01.53,0,5.03-.41,11.53,2.01,14.7-1.25,3.08-3.16,2.92-9.49,4.13-14.44,17.83-73.22,35.65-146.44,53.46-219.67.12-.5.14-1.03.29-2.25h-27.76C106.02,31.35,110,15.89,114.09.04c1.67,0,3.23,0,4.79,0,58.7-.02,117.41-.08,176.11-.01,16.29.02,32.42,1.79,47.95,6.99,31.84,10.67,47.58,37.22,41.39,70.27-7.42,39.59-30.12,66.28-68.38,79.45-2.32.8-4.67,1.54-7.04,2.32.55,1.55,1.98,1.28,3.04,1.57,33.65,9.37,50.36,34.65,45.86,69.43-6.47,49.97-38.21,83.37-89.01,93.77-12.66,2.59-25.48,3.9-38.35,3.66-61.51-1.16-123.03-2-184.55-1.77-1.03,0-2.06-.17-3.86-.33ZM150.73,282.65c21.34,0,41.76.08,62.18-.04,7.07-.04,14.04-1.35,20.84-3.26,26.53-7.46,42.51-24.57,46.79-51.99,2.99-19.16-6.48-34.11-25.01-39.78-4.02-1.23-8.23-2.15-12.41-2.49-21.46-1.79-42.97-.5-64.46-1.01-2.54-.06-3.16,1.13-3.68,3.35-2.45,10.45-5.05,20.86-7.72,31.26-5.42,21.12-10.91,42.22-16.53,63.96ZM187.73,136.61c23.58-.94,46.53,1.59,69.3-1.56,27.28-3.78,44.39-20.14,48.81-45.41,3.3-18.88-4.88-32.55-23.11-38.31-3.68-1.16-7.49-2.18-11.3-2.57-19.33-1.98-38.73-.71-58.1-1.06-2.29-.04-2.9,1.09-3.4,3.05-7.26,28.27-14.59,56.52-22.18,85.86Z"/>
  <path class="st2" d="M1387.69,301.71c-11.65,11.1-24.6,19.57-40.2,23.68-16.13,4.24-32.38,4.92-48.71,1.42-25.35-5.43-43.55-24.93-47.58-51.89-5.51-36.95,4.8-70.19,25.58-100.42,17.86-25.97,42.05-43.29,73.19-50.08,13.65-2.98,27.33-2.75,40.88.66,15.77,3.98,28.28,12.35,35.94,28.34,1.56-5.26,2.93-9.7,4.2-14.16,10.21-35.89,20.47-71.77,30.5-107.7,1.06-3.8,2.68-4.92,6.51-4.87,14.81.2,29.62.04,44.44.06,1.35,0,2.81-.44,4.53.77-3.6,13.56-7.1,27.31-10.89,40.98-23.22,83.78-46.54,167.53-69.7,251.33-1.21,4.4-2.92,6.1-7.79,5.98-15.5-.39-31.02-.14-47.36-.14,2.23-8.27,4.34-16.11,6.46-23.96ZM1307.25,243.72c-.05,30.95,17.18,46.36,43.55,43.01,11.79-1.5,21.69-7.18,30-15.43,18.85-18.71,27.84-42.2,30.78-67.95,2.47-21.67-11.62-37.64-33.32-39.63-11.87-1.09-22.91,1.72-32.65,8.38-26.63,18.21-35.44,45.61-38.36,71.61Z"/>
  <path class="st2" d="M541.19,406.26c8.43-13.91,16.54-27.11,24.42-40.44,1.65-2.78,3.53-2.2,5.79-1.56,6.88,1.94,13.91,2.59,20.94,1.39,9.72-1.65,18.09-6.12,24.19-13.95,6.17-7.91,11.81-16.24,17.79-24.3,1.51-2.03.84-4.01.53-6.06-8.4-56.66-16.81-113.32-25.2-169.98-1.18-7.99-2.26-15.99-3.41-24.17h57.71c5.24,45.65,10.45,91.13,14.83,137.19,2.72-1.56,3.55-4.08,4.83-6.14,26.01-41.92,53.19-83.09,79.96-124.52,3.24-5.01,6.61-7.03,12.65-6.89,18.26.42,36.54.15,55.85.15-2.03,3.24-3.48,5.76-5.13,8.14-26.43,38.06-52.8,76.17-79.36,114.14-26.36,37.68-52.86,75.26-79.45,112.78-6.81,9.62-13.77,19.12-22.57,27.2-13.82,12.69-29.76,20.4-48.4,22.67-18.8,2.29-37.15.61-55.99-5.67Z"/>
  <path class="st2" d="M435.84,239.38c-2.84,15.32-2.81,29.45,9.58,40.49,13.16,11.72,37.61,11.56,53.72-.05,5.66-4.08,10.37-9.05,14.16-14.83,1.75-2.67,3.58-3.22,6.54-2.53,14.93,3.52,30.15,5.34,45.95,7.6-2.58,5.72-5.79,10.88-9.46,15.69-20.64,27.08-48.51,40.65-82.07,42.85-19.11,1.25-38.05.11-56.24-6.84-26.05-9.95-40.2-29.33-42.61-56.56-4.48-50.63,27.55-122.69,99.41-139.61,20.57-4.84,41.34-4.72,61.77.63,33.75,8.83,52.02,35.55,48.87,70.41-1.2,13.22-4.08,26.07-7.7,38.82-.94,3.31-2.41,3.97-5.49,3.96-35.78-.09-71.56-.05-107.34-.04-9.5,0-19,0-29.09,0ZM529.34,203.56c1.5-4.9,1.84-9.62,1.4-14.38-1.16-12.78-9.2-22.14-21.72-24.71-14.89-3.05-28.88-.42-41.24,8.48-10.49,7.55-17.62,17.71-21.52,30.61h83.08Z"/>
  <path class="st2" d="M928.24,122.29c18.69.18,37.74,2.88,55.07,12.83,21.13,12.13,32.21,30.97,33.7,54.78,5.84,93.43-81.03,163.52-171.98,130.75-29.45-10.61-46.84-36.08-46.76-68.24.18-72.76,50.92-129.28,129.97-130.13ZM856.01,243.74c-.17,24.08,10.43,38.44,28.72,41.93,14.18,2.71,27.64.29,39.07-8.49,25.86-19.87,36.65-47.26,35.77-79.03-.54-19.46-12.64-31.6-30.8-33.86-15.63-1.95-29.83,1.99-41.85,12.23-21.65,18.45-28.69,43.47-30.91,67.22Z"/>
  <path class="st2" d="M1120.45,127.05c-1.94,7.99-3.76,15.46-5.84,24,6.88-5.79,13.1-10.86,20.11-14.84,24.1-13.69,49.59-17.59,76.41-10.29,19.3,5.25,28.66,17.51,29.83,37.39.86,14.56-3.07,28.33-7,42.02-11.03,38.4-22.44,76.69-33.45,115.09-1.22,4.26-3.03,5.35-7.25,5.29-17.07-.25-34.14-.1-51.97-.1,1.92-6.86,3.63-13.24,5.49-19.57,10.36-35.12,20.77-70.24,31.14-105.36,1.45-4.91,2.49-9.88,2.4-15.07-.18-10.58-5.65-17.84-16.28-19.68-18.13-3.14-33.66,2.91-47.21,14.83-8.32,7.32-13.65,16.47-16.58,27.09-10.4,37.69-20.85,75.37-31.14,113.1-.94,3.44-2.26,4.82-6.05,4.77-17.06-.22-34.13-.1-51.95-.1,2.4-9.21,4.55-17.83,6.88-26.4,15.26-56.1,30.54-112.18,45.85-168.26.46-1.69.17-3.96,3.17-3.95,17.6.08,35.2.04,53.42.04Z"/>
  <path class="st0" d="M684.13,410.37c4.74-5.28,8.56-9.54,12.38-13.79,1.56-1.74,3.64-1.02,5.49-1.02,107.2.07,214.41.14,321.61.28,156.39.21,312.79.47,469.18.7,1.04,0,2.09,0,3.26.5-13.12,5.15-24.6,13.36-40.08,13.34-254.96-.28-509.92-.09-764.88-.01-1.76,0-3.52,0-6.95,0Z"/>
  <path class="st0" d="M0,409.5c8.41-4.72,16.83-9.39,25.2-14.18,1.83-1.05,3.71-.94,5.63-.94,101.73.2,203.45.39,305.18.61,56.59.12,113.18.3,169.77.44,2.8,0,5.61,0,9.05,0-3.1,5.55-7.41,9.43-10.91,13.9-1.5,1.91-3.99.99-6.02,1-44.96.07-89.91.06-134.87.09-118.3.07-236.6.16-354.89.24-2.61,0-5.23,0-7.84,0-.1-.39-.19-.77-.29-1.16Z"/>
  <g>
    <path class="st1" d="M114.16,516.35h-27.92l-6.01,13.38h-5.51l22.9-50.1h5.23l22.9,50.1h-5.58l-6.01-13.38ZM112.22,512.06l-12.02-26.92-12.02,26.92h24.04Z"/>
    <path class="st1" d="M185.58,504.12h8.81v19.97c-2.58,2.05-5.58,3.63-9.02,4.72-3.44,1.1-6.97,1.64-10.6,1.64-5.11,0-9.71-1.1-13.81-3.33-4.1-2.22-7.32-5.28-9.67-9.2-2.33-3.91-3.5-8.32-3.5-13.24s1.17-9.33,3.5-13.24c2.34-3.91,5.57-6.98,9.7-9.2,4.12-2.22,8.76-3.33,13.92-3.33,4.19,0,8.01.69,11.45,2.08,3.43,1.38,6.32,3.41,8.66,6.08l-5.87,5.72c-3.82-3.82-8.42-5.72-13.81-5.72-3.53,0-6.67.74-9.41,2.22-2.74,1.48-4.89,3.56-6.44,6.23-1.55,2.68-2.33,5.72-2.33,9.16s.78,6.35,2.33,9.02c1.55,2.68,3.7,4.77,6.44,6.3,2.75,1.53,5.86,2.29,9.34,2.29,3.91,0,7.35-.86,10.3-2.58v-15.6Z"/>
    <path class="st1" d="M206.63,479.64h9.3v42.23h26.2v7.87h-35.5v-50.1Z"/>
    <path class="st1" d="M258.16,527.12c-4.1-2.22-7.32-5.3-9.67-9.23-2.33-3.93-3.5-8.34-3.5-13.2s1.17-9.27,3.5-13.2c2.34-3.93,5.56-7.02,9.67-9.23,4.1-2.22,8.7-3.33,13.81-3.33s9.71,1.1,13.81,3.33c4.1,2.22,7.32,5.28,9.67,9.2,2.33,3.91,3.51,8.32,3.51,13.24s-1.17,9.33-3.51,13.24c-2.34,3.91-5.56,6.98-9.67,9.2-4.1,2.22-8.71,3.33-13.81,3.33s-9.71-1.1-13.81-3.33ZM280.98,520.04c2.68-1.5,4.77-3.6,6.3-6.3,1.53-2.69,2.29-5.71,2.29-9.05s-.76-6.36-2.29-9.05c-1.52-2.7-3.62-4.79-6.3-6.3-2.67-1.51-5.68-2.26-9.02-2.26s-6.35.75-9.02,2.26c-2.68,1.5-4.77,3.6-6.3,6.3-1.53,2.69-2.29,5.71-2.29,9.05s.76,6.36,2.29,9.05c1.52,2.7,3.62,4.79,6.3,6.3,2.67,1.51,5.68,2.26,9.02,2.26s6.35-.75,9.02-2.26Z"/>
    <path class="st1" d="M350.91,508.23c1.62,2.12,2.43,4.76,2.43,7.9,0,4.35-1.67,7.7-5.01,10.06-3.34,2.36-8.21,3.54-14.6,3.54h-24.9v-50.1h23.47c5.92,0,10.48,1.16,13.67,3.47,3.19,2.31,4.79,5.5,4.79,9.55,0,2.48-.57,4.68-1.72,6.58-1.14,1.91-2.72,3.39-4.72,4.44,2.76.9,4.96,2.42,6.58,4.54ZM318.13,486.94v13.82h13.17c3.24,0,5.74-.59,7.48-1.75,1.74-1.17,2.61-2.87,2.61-5.12s-.87-4.02-2.61-5.19c-1.74-1.17-4.24-1.75-7.48-1.75h-13.17ZM343.97,515.21c0-4.82-3.6-7.23-10.81-7.23h-15.03v14.46h15.03c7.21,0,10.81-2.41,10.81-7.23Z"/>
    <path class="st1" d="M395.78,518.14h-25.05l-4.94,11.6h-9.59l22.54-50.1h9.16l22.62,50.1h-9.74l-5-11.6ZM392.7,510.85l-9.44-21.9-9.38,21.9h18.82Z"/>
    <path class="st1" d="M416.9,479.64h9.3v42.23h26.2v7.87h-35.5v-50.1Z"/>
    <path class="st1" d="M496.76,508.77l-7.94,8.16v12.81h-9.3v-50.1h9.3v25.69l24.76-25.69h10.45l-21.04,22.4,22.33,27.7h-10.88l-17.68-20.97Z"/>
    <path class="st1" d="M569.27,521.94v7.8h-37.57v-50.1h36.57v7.8h-27.27v13.03h24.19v7.66h-24.19v13.81h28.27Z"/>
    <path class="st1" d="M600.69,512.06v17.68h-9.3v-17.54l-19.68-32.56h9.95l14.67,24.41,14.82-24.41h9.16l-19.61,32.42Z"/>
    <path class="st1" d="M678.09,481.79c3.22,1.43,5.69,3.49,7.41,6.16,1.71,2.67,2.57,5.84,2.57,9.52s-.86,6.79-2.57,9.48c-1.72,2.69-4.19,4.76-7.41,6.19-3.22,1.43-7,2.15-11.34,2.15h-11.31v14.45h-9.3v-50.1h20.61c4.34,0,8.12.71,11.34,2.15ZM675.54,504.83c2.1-1.71,3.15-4.17,3.15-7.37s-1.05-5.65-3.15-7.37c-2.1-1.72-5.18-2.58-9.23-2.58h-10.88v19.9h10.88c4.05,0,7.14-.86,9.23-2.58Z"/>
    <path class="st1" d="M727.37,518.14h-25.05l-4.94,11.6h-9.59l22.54-50.1h9.16l22.62,50.1h-9.74l-5-11.6ZM724.29,510.85l-9.44-21.9-9.38,21.9h18.82Z"/>
    <path class="st1" d="M781.25,529.74l-10.23-14.67c-.43.05-1.07.07-1.93.07h-11.31v14.6h-9.3v-50.1h20.61c4.34,0,8.12.71,11.34,2.15,3.22,1.43,5.69,3.49,7.41,6.16,1.71,2.67,2.57,5.84,2.57,9.52s-.92,7.01-2.75,9.73c-1.84,2.73-4.47,4.75-7.91,6.09l11.53,16.46h-10.02ZM777.89,490.09c-2.1-1.72-5.18-2.58-9.23-2.58h-10.88v19.97h10.88c4.05,0,7.14-.87,9.23-2.61,2.1-1.75,3.15-4.21,3.15-7.41s-1.05-5.65-3.15-7.37Z"/>
    <path class="st1" d="M810.24,487.51h-16.61v-7.87h42.52v7.87h-16.61v42.23h-9.3v-42.23Z"/>
    <path class="st1" d="M887.68,479.64v50.1h-7.66l-27.62-33.93v33.93h-9.23v-50.1h7.65l27.63,33.93v-33.93h9.23Z"/>
    <path class="st1" d="M938.71,521.94v7.8h-37.57v-50.1h36.57v7.8h-27.27v13.03h24.19v7.66h-24.19v13.81h28.27Z"/>
    <path class="st1" d="M981.86,529.74l-10.23-14.67c-.43.05-1.07.07-1.93.07h-11.31v14.6h-9.3v-50.1h20.61c4.34,0,8.12.71,11.34,2.15,3.22,1.43,5.69,3.49,7.41,6.16,1.71,2.67,2.57,5.84,2.57,9.52s-.92,7.01-2.75,9.73c-1.84,2.73-4.47,4.75-7.91,6.09l11.53,16.46h-10.02ZM978.5,490.09c-2.1-1.72-5.18-2.58-9.23-2.58h-10.88v19.97h10.88c4.05,0,7.14-.87,9.23-2.61,2.1-1.75,3.15-4.21,3.15-7.41s-1.05-5.65-3.15-7.37Z"/>
    <path class="st1" d="M1005.73,528.81c-3.6-1.1-6.45-2.55-8.55-4.37l3.22-7.23c2.05,1.62,4.57,2.95,7.56,3.97,2.98,1.03,5.98,1.54,8.98,1.54,3.72,0,6.5-.59,8.34-1.79,1.83-1.19,2.75-2.76,2.75-4.72,0-1.43-.52-2.61-1.54-3.54-1.03-.93-2.33-1.66-3.9-2.19-1.58-.52-3.73-1.12-6.44-1.79-3.82-.9-6.91-1.81-9.27-2.72-2.36-.9-4.39-2.32-6.08-4.26-1.7-1.93-2.54-4.54-2.54-7.83,0-2.77.75-5.28,2.26-7.56,1.5-2.26,3.77-4.06,6.79-5.4,3.03-1.33,6.74-2,11.13-2,3.05,0,6.06.38,9.02,1.14,2.96.77,5.51,1.87,7.66,3.29l-2.94,7.23c-2.19-1.29-4.49-2.26-6.87-2.94-2.39-.67-4.7-1-6.95-1-3.67,0-6.4.62-8.19,1.86-1.79,1.24-2.68,2.89-2.68,4.93,0,1.43.51,2.6,1.54,3.51,1.03.91,2.33,1.62,3.9,2.15,1.57.52,3.73,1.13,6.44,1.79,3.72.86,6.77,1.75,9.16,2.68,2.38.93,4.42,2.36,6.12,4.26s2.54,4.48,2.54,7.72c0,2.77-.75,5.28-2.26,7.52-1.5,2.24-3.78,4.03-6.84,5.37-3.05,1.33-6.77,2-11.16,2-3.87,0-7.6-.55-11.2-1.64Z"/>
    <path class="st1" d="M1074.94,526.87c-3.98-2.19-7.11-5.23-9.37-9.12-2.26-3.89-3.4-8.24-3.4-13.06s1.14-9.17,3.4-13.06c2.26-3.89,5.4-6.93,9.41-9.12,4.01-2.19,8.49-3.29,13.46-3.29,3.72,0,7.16.62,10.3,1.86,3.15,1.24,5.82,3.05,8.02,5.44l-3.36,3.36c-3.91-3.96-8.86-5.94-14.82-5.94-3.96,0-7.56.91-10.81,2.73-3.25,1.81-5.79,4.29-7.63,7.44-1.84,3.15-2.75,6.68-2.75,10.6s.92,7.44,2.75,10.6c1.84,3.15,4.38,5.63,7.63,7.44,3.24,1.82,6.84,2.73,10.81,2.73,6.01,0,10.95-2.01,14.82-6.02l3.36,3.37c-2.19,2.38-4.88,4.21-8.05,5.47-3.17,1.27-6.62,1.89-10.34,1.89-4.96,0-9.44-1.1-13.42-3.29Z"/>
    <path class="st1" d="M1125.4,526.84c-4.03-2.22-7.18-5.26-9.45-9.12-2.26-3.87-3.4-8.21-3.4-13.03s1.14-9.16,3.4-13.03c2.26-3.87,5.42-6.91,9.45-9.12,4.03-2.22,8.53-3.33,13.49-3.33s9.44,1.1,13.42,3.29c3.98,2.19,7.12,5.23,9.41,9.12,2.29,3.89,3.44,8.25,3.44,13.06s-1.15,9.17-3.44,13.06c-2.29,3.89-5.42,6.93-9.41,9.12-3.98,2.19-8.46,3.29-13.42,3.29s-9.46-1.1-13.49-3.33ZM1149.62,522.76c3.19-1.79,5.7-4.27,7.51-7.44,1.81-3.17,2.72-6.72,2.72-10.63s-.91-7.46-2.72-10.63c-1.82-3.17-4.32-5.65-7.51-7.44-3.2-1.79-6.78-2.68-10.74-2.68s-7.56.89-10.77,2.68c-3.22,1.79-5.75,4.27-7.59,7.44-1.84,3.17-2.75,6.72-2.75,10.63s.92,7.46,2.75,10.63c1.84,3.17,4.37,5.65,7.59,7.44,3.22,1.79,6.81,2.68,10.77,2.68s7.53-.89,10.74-2.68Z"/>
    <path class="st1" d="M1229.06,479.64v50.1h-5.08v-40.08l-19.68,33.71h-2.51l-19.68-33.5v39.87h-5.08v-50.1h4.37l21.76,37.15,21.54-37.15h4.37Z"/>
    <path class="st1" d="M1279.16,484.22c3.62,3.05,5.44,7.25,5.44,12.6s-1.82,9.53-5.44,12.56c-3.63,3.03-8.64,4.54-15.03,4.54h-13.45v15.82h-5.3v-50.1h18.75c6.4,0,11.41,1.53,15.03,4.58ZM1275.37,506.01c2.62-2.17,3.93-5.23,3.93-9.19s-1.31-7.17-3.93-9.34c-2.63-2.17-6.42-3.26-11.38-3.26h-13.31v25.05h13.31c4.96,0,8.75-1.08,11.38-3.26Z"/>
    <path class="st1" d="M1324.97,516.35h-27.92l-6.01,13.38h-5.51l22.9-50.1h5.23l22.9,50.1h-5.58l-6.01-13.38ZM1323.04,512.06l-12.02-26.92-12.02,26.92h24.04Z"/>
    <path class="st1" d="M1386.74,479.64v50.1h-4.37l-32.21-40.65v40.65h-5.3v-50.1h4.37l32.28,40.65v-40.65h5.23Z"/>
    <path class="st1" d="M1420.23,512.42v17.32h-5.23v-17.32l-20.04-32.78h5.65l17.18,28.12,17.17-28.12h5.3l-20.04,32.78Z"/>
  </g>
  <path class="st1" d="M1600.26,53.02c0,14.86-11.91,26.78-27.38,26.78s-27.54-11.92-27.54-26.78,12.38-26.77,27.7-26.77,27.23,12.08,27.23,26.77M1553.53,53.18c0,10.99,8.21,19.96,19.35,19.96,11.14.15,19.34-8.97,19.34-20.12s-8.2-20.11-19.5-20.11-19.19,9.13-19.19,20.27M1569.46,65.56h-7.58v-24.3c1.7-.31,5.88-.93,10.83-.93,2.67,0,5.55-.02,7.96,1.32,2.16,1.2,3.36,3.27,3.36,5.74,0,2.47-1.1,4.86-4.34,6.1,2.63.77,4.17,2.79,4.95,6.19.77,3.56,1.24,5.11,1.71,5.88h-8.36c-.77-.93-1.24-2.94-1.86-5.26-.46-2.47-1.7-3.56-4.18-3.56h-2.47v8.82ZM1569.78,51.63h2.16c2.95,0,4.65-1.09,4.65-2.94,0-2.01-1.7-3.1-4.33-3.1-.93,0-1.85.15-2.47.15v5.88Z"/>
</svg>